<svg fill="none" height="92" viewBox="0 0 92 92" width="92" xmlns="http://www.w3.org/2000/svg" xmlns:xlink="http://www.w3.org/1999/xlink"><linearGradient id="a" gradientUnits="userSpaceOnUse" x1="46.0246" x2="46.0246" y1="23.8057" y2="68.2377"><stop offset="0" stop-color="#fb5971"/><stop offset="1" stop-color="#fa253d"/></linearGradient><path d="m68.2226 35.1459c0-1.3663-.1153-2.7271-.4416-4.0573-.5859-2.423-1.9674-4.274-4.0348-5.6333-1.0636-.6943-2.2341-1.1206-3.4781-1.3455-.9553-.1736-1.923-.2528-2.8922-.275-.0722-.0069-.1513-.0222-.2318-.0291h-22.2584c-.2819.0222-.5637.0361-.8456.05-1.3815.0791-2.7547.2235-4.057.7442-2.4729.9762-4.2598 2.6827-5.3012 5.1418-.361.8317-.5429 1.7135-.672 2.6105-.1083.7234-.1666 1.4538-.1874 2.1841 0 .0583-.0139.1153-.0139.1736v22.6291c.0139.261.0292.5207.043.7817.0945 1.5122.2888 3.009.9261 4.3976 1.2011 2.6257 3.2185 4.353 5.9885 5.1848.7733.2388 1.5842.3471 2.3937.4193 1.0274.1014 2.0535.1153 3.0809.1153h20.4215c.9691 0 1.9382-.0653 2.9074-.1875 1.5259-.1958 2.9574-.6443 4.2528-1.4968 1.5551-1.0276 2.727-2.3869 3.4781-4.0865.3471-.7818.5429-1.6121.6873-2.4522.2097-1.2511.2527-2.5174.2527-3.7824-.0069-7.0302 0-14.059-.0069-21.0892zm-11.8894 7.3829v10.5737c0 .7735-.1083 1.533-.4554 2.2342-.5346 1.0914-1.4024 1.7787-2.5673 2.112-.6442.1874-1.3093.2888-1.9813.318-1.7578.0874-3.2837-1.1067-3.5947-2.8424-.268-1.4316.4193-3.009 1.923-3.7463.5929-.2888 1.2371-.4624 1.88-.5929.7011-.1513 1.4023-.2888 2.0965-.4485.5138-.1152.8456-.4263.947-.9553.0291-.1152.0361-.2388.0361-.3541 0-3.363 0-6.7261 0-10.0808 0-.1153-.0223-.2319-.05-.3402-.0722-.2819-.2749-.4485-.5637-.4346-.2972.0139-.586.0652-.8748.1236-1.4106.2749-2.8199.5568-4.2236.8456l-6.8479 1.3816c-.0292.0069-.0653.0222-.0944.0222-.5138.1444-.6943.3763-.7165.9109-.0069.0791 0 .1597 0 .2388-.0069 4.8169 0 9.6337-.0069 14.4492 0 .7818-.0875 1.5482-.3971 2.2703-.5137 1.1858-1.4246 1.9314-2.6534 2.2855-.6511.1875-1.3162.2972-1.9966.318-1.7716.0653-3.2476-1.1136-3.5502-2.8562-.2611-1.5038.4262-3.1243 2.1326-3.8477.6651-.2749 1.3524-.4263 2.0536-.5707.5276-.1083 1.0635-.2166 1.5911-.3249.7081-.1514 1.0775-.5999 1.1136-1.3233v-.2749c0-5.482 0-10.964 0-16.4459 0-.2319.0291-.4624.0791-.6874.1305-.5276.5068-.8317 1.0122-.9553.4707-.1236.9553-.2096 1.4315-.311 1.3593-.2749 2.7117-.5499 4.0709-.8179l4.2015-.8539c1.2441-.2458 2.4798-.4985 3.7239-.7443.4054-.0791.8178-.1666 1.2287-.1958.5707-.0499.9692.3111 1.0275.8901.0139.1375.0222.2749.0222.4124v10.6099z" fill="url(#a)"/></svg>